<svg xmlns="http://www.w3.org/2000/svg" xmlns:xlink="http://www.w3.org/1999/xlink" width="600" zoomAndPan="magnify" viewBox="0 0 450 187.499995" height="250" preserveAspectRatio="xMidYMid meet" version="1.0"><defs><clipPath id="c20853be97"><path d="M 22 57.183594 L 428.851562 57.183594 L 428.851562 129.742188 L 22 129.742188 Z M 22 57.183594 " clip-rule="nonzero"/></clipPath></defs><g clip-path="url(#c20853be97)"><path fill="#421210" d="M 60.386719 60.21875 L 69.597656 78.929688 C 69.910156 79.664062 70.644531 80.1875 71.480469 80.289062 L 92.203125 83.320312 C 94.191406 83.636719 95.03125 86.144531 93.5625 87.503906 L 78.597656 102.035156 C 77.96875 102.558594 77.761719 103.394531 77.863281 104.230469 L 81.421875 124.828125 C 81.738281 126.8125 79.644531 128.382812 77.863281 127.441406 L 59.339844 117.71875 C 58.609375 117.300781 57.769531 117.300781 57.039062 117.71875 L 38.511719 127.441406 C 36.734375 128.382812 34.640625 126.8125 34.953125 124.828125 L 38.511719 104.230469 C 38.617188 103.394531 38.40625 102.664062 37.78125 102.035156 L 22.8125 87.503906 C 21.347656 86.039062 22.183594 83.636719 24.175781 83.320312 L 44.898438 80.289062 C 45.734375 80.1875 46.363281 79.664062 46.78125 78.929688 L 55.992188 60.21875 C 56.933594 58.441406 59.550781 58.441406 60.386719 60.21875 Z M 164.523438 128.488281 C 165.78125 127.546875 166.410156 126.082031 166.09375 124.515625 L 162.535156 103.917969 C 162.535156 103.605469 162.535156 103.289062 162.746094 103.082031 L 177.816406 88.652344 C 178.96875 87.609375 179.28125 85.9375 178.863281 84.472656 C 178.339844 83.007812 177.085938 81.964844 175.617188 81.753906 L 154.894531 78.722656 C 154.582031 78.722656 154.371094 78.511719 154.269531 78.199219 L 145.058594 59.484375 C 144.324219 58.125 142.964844 57.183594 141.394531 57.183594 C 139.824219 57.183594 138.464844 58.019531 137.730469 59.484375 L 128.519531 78.199219 C 128.417969 78.511719 128.101562 78.617188 127.894531 78.722656 L 107.171875 81.753906 C 105.601562 81.964844 104.34375 83.007812 103.925781 84.472656 C 103.507812 85.9375 103.820312 87.503906 104.972656 88.652344 L 119.9375 103.1875 C 120.148438 103.394531 120.253906 103.710938 120.148438 104.023438 L 116.589844 124.617188 C 116.277344 126.1875 116.902344 127.652344 118.160156 128.589844 C 119.414062 129.53125 121.089844 129.636719 122.449219 128.90625 L 140.976562 119.183594 C 141.289062 119.078125 141.605469 119.078125 141.8125 119.183594 L 160.339844 128.90625 C 160.964844 129.21875 161.59375 129.324219 162.222656 129.324219 C 162.953125 129.324219 163.792969 129.007812 164.523438 128.488281 Z M 139.511719 116.359375 L 120.984375 126.082031 C 120.566406 126.292969 120.148438 126.082031 120.042969 125.976562 C 119.9375 125.875 119.625 125.558594 119.730469 125.140625 L 123.289062 104.546875 C 123.496094 103.1875 123.078125 101.933594 122.136719 100.992188 L 107.066406 86.355469 C 106.75 86.039062 106.75 85.621094 106.855469 85.414062 C 106.960938 85.203125 107.066406 84.890625 107.589844 84.785156 L 128.3125 81.753906 C 129.671875 81.542969 130.71875 80.707031 131.347656 79.558594 L 140.558594 60.84375 C 140.765625 60.425781 141.183594 60.425781 141.394531 60.425781 C 141.605469 60.425781 142.023438 60.425781 142.230469 60.949219 L 151.441406 79.664062 C 152.070312 80.8125 153.222656 81.648438 154.476562 81.859375 L 175.199219 84.890625 C 175.722656 84.996094 175.828125 85.308594 175.933594 85.519531 C 176.039062 85.726562 176.039062 86.039062 175.722656 86.457031 L 160.757812 100.992188 C 159.816406 101.933594 159.394531 103.289062 159.605469 104.546875 L 163.164062 125.140625 C 163.269531 125.664062 162.953125 125.875 162.851562 125.976562 C 162.746094 126.082031 162.328125 126.292969 161.910156 126.082031 L 143.382812 116.359375 C 142.753906 116.046875 142.128906 115.941406 141.5 115.941406 C 140.871094 115.941406 140.035156 116.046875 139.511719 116.359375 Z M 247.625 128.488281 C 248.882812 127.546875 249.511719 126.082031 249.195312 124.515625 L 245.636719 103.917969 C 245.636719 103.605469 245.636719 103.289062 245.847656 103.082031 L 260.917969 88.652344 C 262.070312 87.609375 262.382812 85.9375 261.964844 84.472656 C 261.546875 83.007812 260.183594 81.964844 258.71875 81.753906 L 237.996094 78.722656 C 237.683594 78.722656 237.472656 78.511719 237.265625 78.199219 L 228.054688 59.484375 C 227.320312 58.125 225.960938 57.183594 224.390625 57.183594 C 222.820312 57.183594 221.460938 58.019531 220.726562 59.484375 L 211.519531 78.199219 C 211.414062 78.511719 211.097656 78.617188 210.890625 78.722656 L 190.167969 81.753906 C 188.597656 81.964844 187.339844 83.007812 186.921875 84.472656 C 186.503906 85.9375 186.816406 87.503906 187.96875 88.652344 L 202.933594 103.1875 C 203.144531 103.394531 203.25 103.710938 203.144531 104.023438 L 199.585938 124.617188 C 199.273438 126.1875 199.898438 127.652344 201.15625 128.589844 C 202.414062 129.53125 204.085938 129.636719 205.449219 128.90625 L 223.972656 119.183594 C 224.285156 119.078125 224.601562 119.078125 224.808594 119.183594 L 243.335938 128.90625 C 243.960938 129.21875 244.589844 129.324219 245.21875 129.324219 C 246.160156 129.324219 246.996094 129.007812 247.625 128.488281 Z M 222.613281 116.359375 L 204.085938 126.082031 C 203.667969 126.292969 203.25 126.082031 203.144531 125.976562 C 203.039062 125.875 202.726562 125.558594 202.832031 125.140625 L 206.390625 104.546875 C 206.597656 103.1875 206.179688 101.933594 205.238281 100.992188 L 190.273438 86.457031 C 189.957031 86.144531 189.957031 85.726562 190.0625 85.519531 C 190.167969 85.308594 190.273438 84.996094 190.792969 84.890625 L 211.519531 81.859375 C 212.878906 81.648438 213.925781 80.8125 214.554688 79.664062 L 223.761719 60.949219 C 223.972656 60.53125 224.390625 60.425781 224.601562 60.425781 C 224.808594 60.425781 225.226562 60.425781 225.4375 60.949219 L 234.648438 79.664062 C 235.277344 80.8125 236.425781 81.648438 237.683594 81.859375 L 258.40625 84.890625 C 258.929688 84.996094 259.035156 85.308594 259.136719 85.519531 C 259.136719 85.726562 259.242188 86.039062 258.929688 86.457031 L 243.960938 100.992188 C 243.019531 101.933594 242.601562 103.289062 242.8125 104.546875 L 246.371094 125.140625 C 246.476562 125.664062 246.160156 125.875 246.054688 125.976562 C 245.953125 126.082031 245.53125 126.292969 245.113281 126.082031 L 226.589844 116.359375 C 225.960938 116.046875 225.332031 115.941406 224.703125 115.941406 C 224.078125 115.941406 223.238281 116.046875 222.613281 116.359375 Z M 330.832031 128.488281 C 332.085938 127.546875 332.714844 126.082031 332.402344 124.515625 L 328.84375 103.917969 C 328.84375 103.605469 328.84375 103.289062 329.050781 103.082031 L 344.125 88.652344 C 345.273438 87.609375 345.589844 85.9375 345.171875 84.472656 C 344.75 83.007812 343.390625 81.964844 341.925781 81.753906 L 321.203125 78.722656 C 320.890625 78.722656 320.679688 78.511719 320.46875 78.199219 L 311.261719 59.484375 C 310.527344 58.125 309.167969 57.183594 307.597656 57.183594 C 306.027344 57.183594 304.667969 58.019531 303.933594 59.484375 L 294.722656 78.199219 C 294.617188 78.511719 294.304688 78.617188 294.09375 78.722656 L 273.371094 81.753906 C 271.800781 81.964844 270.546875 83.007812 270.128906 84.472656 C 269.710938 85.9375 270.023438 87.503906 271.175781 88.652344 L 286.140625 103.1875 C 286.351562 103.394531 286.457031 103.710938 286.351562 104.023438 L 282.792969 124.617188 C 282.476562 126.1875 283.105469 127.652344 284.363281 128.589844 C 285.617188 129.53125 287.292969 129.636719 288.652344 128.90625 L 307.179688 119.183594 C 307.492188 119.078125 307.804688 119.078125 308.015625 119.183594 L 326.539062 128.90625 C 327.167969 129.21875 327.796875 129.324219 328.425781 129.324219 C 329.261719 129.324219 330.097656 129.007812 330.832031 128.488281 Z M 305.714844 116.359375 L 287.1875 126.082031 C 286.769531 126.292969 286.351562 126.082031 286.246094 125.976562 C 286.140625 125.875 285.828125 125.558594 285.933594 125.140625 L 289.492188 104.546875 C 289.699219 103.1875 289.28125 101.933594 288.339844 100.992188 L 273.371094 86.457031 C 273.058594 86.144531 273.058594 85.726562 273.164062 85.519531 C 273.164062 85.308594 273.371094 84.996094 273.894531 84.890625 L 294.617188 81.859375 C 295.980469 81.648438 297.027344 80.8125 297.652344 79.664062 L 306.863281 60.949219 C 307.074219 60.53125 307.492188 60.425781 307.703125 60.425781 C 307.910156 60.425781 308.328125 60.425781 308.539062 60.949219 L 317.75 79.664062 C 318.375 80.8125 319.527344 81.648438 320.785156 81.859375 L 341.507812 84.890625 C 342.03125 84.996094 342.136719 85.308594 342.238281 85.519531 C 342.238281 85.726562 342.34375 86.039062 342.03125 86.457031 L 327.0625 100.992188 C 326.121094 101.933594 325.703125 103.289062 325.914062 104.546875 L 329.472656 125.140625 C 329.574219 125.664062 329.261719 125.875 329.15625 125.976562 C 329.050781 126.082031 328.632812 126.292969 328.214844 126.082031 L 309.691406 116.359375 C 309.0625 116.046875 308.433594 115.941406 307.804688 115.941406 C 307.179688 115.941406 306.339844 116.046875 305.714844 116.359375 Z M 413.933594 128.488281 C 415.1875 127.546875 415.816406 126.082031 415.503906 124.515625 L 411.945312 103.917969 C 411.945312 103.605469 411.945312 103.289062 412.152344 103.082031 L 427.226562 88.652344 C 428.375 87.609375 428.691406 85.9375 428.269531 84.472656 C 427.851562 83.007812 426.492188 81.964844 425.027344 81.753906 L 404.304688 78.722656 C 403.988281 78.722656 403.78125 78.511719 403.570312 78.199219 L 394.359375 59.484375 C 393.628906 58.125 392.269531 57.183594 390.699219 57.183594 C 389.128906 57.183594 387.765625 58.019531 387.035156 59.484375 L 377.929688 78.304688 C 377.824219 78.617188 377.511719 78.722656 377.195312 78.828125 L 356.472656 81.859375 C 354.902344 82.066406 353.648438 83.113281 353.230469 84.578125 C 352.707031 86.039062 353.125 87.609375 354.277344 88.757812 L 369.242188 103.289062 C 369.453125 103.5 369.554688 103.8125 369.453125 104.128906 L 365.894531 124.722656 C 365.578125 126.292969 366.207031 127.753906 367.464844 128.695312 C 368.71875 129.636719 370.394531 129.742188 371.753906 129.007812 L 390.28125 119.285156 C 390.59375 119.183594 390.90625 119.183594 391.117188 119.285156 L 409.640625 129.007812 C 410.269531 129.324219 410.898438 129.429688 411.527344 129.429688 C 412.363281 129.324219 413.199219 129.007812 413.933594 128.488281 Z M 388.917969 116.359375 L 370.394531 126.082031 C 369.976562 126.292969 369.554688 126.082031 369.453125 125.976562 C 369.347656 125.875 369.03125 125.558594 369.136719 125.140625 L 372.695312 104.546875 C 372.90625 103.1875 372.488281 101.933594 371.542969 100.992188 L 356.578125 86.457031 C 356.265625 86.144531 356.265625 85.726562 356.367188 85.519531 C 356.367188 85.308594 356.578125 84.996094 357.101562 84.890625 L 377.824219 81.859375 C 379.183594 81.648438 380.230469 80.8125 380.859375 79.664062 L 390.070312 60.949219 C 390.277344 60.53125 390.699219 60.425781 390.90625 60.425781 C 391.117188 60.425781 391.535156 60.425781 391.746094 60.949219 L 400.953125 79.664062 C 401.582031 80.8125 402.734375 81.648438 403.988281 81.859375 L 424.710938 84.890625 C 425.234375 84.996094 425.339844 85.308594 425.445312 85.519531 C 425.445312 85.726562 425.550781 86.039062 425.234375 86.457031 L 410.269531 100.992188 C 409.328125 101.933594 408.910156 103.289062 409.117188 104.546875 L 412.675781 125.140625 C 412.78125 125.664062 412.46875 125.875 412.363281 125.976562 C 412.257812 126.082031 411.839844 126.292969 411.421875 126.082031 L 392.894531 116.359375 C 392.269531 116.046875 391.640625 115.941406 391.011719 115.941406 C 390.382812 115.941406 389.441406 116.046875 388.917969 116.359375 Z M 388.917969 116.359375 " fill-opacity="1" fill-rule="nonzero"/></g></svg>