<svg xmlns="http://www.w3.org/2000/svg" xmlns:xlink="http://www.w3.org/1999/xlink" width="600" zoomAndPan="magnify" viewBox="0 0 450 187.499995" height="250" preserveAspectRatio="xMidYMid meet" version="1.0"><defs><clipPath id="47508ae7aa"><path d="M 21.1875 57.183594 L 428.851562 57.183594 L 428.851562 129.742188 L 21.1875 129.742188 Z M 21.1875 57.183594 " clip-rule="nonzero"/></clipPath></defs><g clip-path="url(#47508ae7aa)"><path fill="#ffce38" d="M 60.257812 60.242188 L 69.472656 78.972656 C 69.789062 79.703125 70.523438 80.226562 71.359375 80.332031 L 92.097656 83.367188 C 94.089844 83.679688 94.925781 86.191406 93.460938 87.550781 L 78.484375 102.09375 C 77.855469 102.617188 77.644531 103.457031 77.75 104.292969 L 81.3125 124.90625 C 81.625 126.894531 79.53125 128.460938 77.75 127.519531 L 59.210938 117.789062 C 58.476562 117.371094 57.636719 117.371094 56.90625 117.789062 L 38.367188 127.519531 C 36.585938 128.460938 34.488281 126.894531 34.804688 124.90625 L 38.367188 104.292969 C 38.46875 103.457031 38.261719 102.722656 37.632812 102.09375 L 22.652344 87.550781 C 21.1875 86.085938 22.027344 83.679688 24.015625 83.367188 L 44.753906 80.332031 C 45.59375 80.226562 46.222656 79.703125 46.640625 78.972656 L 55.859375 60.242188 C 56.800781 58.464844 59.417969 58.464844 60.257812 60.242188 Z M 139.023438 60.242188 L 129.808594 78.972656 C 129.492188 79.703125 128.757812 80.226562 127.921875 80.332031 L 107.183594 83.367188 C 105.191406 83.679688 104.355469 86.191406 105.820312 87.550781 L 120.800781 102.09375 C 121.425781 102.617188 121.636719 103.457031 121.53125 104.292969 L 117.972656 124.90625 C 117.65625 126.894531 119.75 128.460938 121.53125 127.519531 L 140.070312 117.789062 C 140.804688 117.371094 141.644531 117.371094 142.375 117.789062 L 160.914062 127.519531 C 162.695312 128.460938 164.894531 126.894531 164.476562 124.90625 L 160.914062 104.292969 C 160.8125 103.457031 161.019531 102.722656 161.648438 102.09375 L 176.628906 87.550781 C 178.09375 86.085938 177.257812 83.679688 175.265625 83.367188 L 154.632812 80.332031 C 153.792969 80.226562 153.164062 79.703125 152.746094 78.972656 L 143.527344 60.242188 C 142.585938 58.464844 139.96875 58.464844 139.023438 60.242188 Z M 247.644531 128.566406 C 248.902344 127.625 249.527344 126.160156 249.214844 124.589844 L 245.652344 103.980469 C 245.652344 103.664062 245.652344 103.351562 245.863281 103.140625 L 260.945312 88.703125 C 262.097656 87.65625 262.414062 85.980469 261.992188 84.515625 C 261.46875 83.050781 260.214844 82.007812 258.746094 81.796875 L 238.007812 78.761719 C 237.691406 78.761719 237.484375 78.554688 237.273438 78.238281 L 228.054688 59.511719 C 227.324219 58.152344 225.960938 57.207031 224.390625 57.207031 C 222.820312 57.207031 221.457031 58.046875 220.722656 59.511719 L 211.507812 78.238281 C 211.402344 78.554688 211.089844 78.65625 210.878906 78.761719 L 190.140625 81.796875 C 188.566406 82.007812 187.3125 83.050781 186.890625 84.515625 C 186.367188 85.980469 186.789062 87.550781 187.941406 88.703125 L 202.917969 103.246094 C 203.128906 103.457031 203.230469 103.769531 203.128906 104.082031 L 199.566406 124.695312 C 199.253906 126.265625 199.878906 127.730469 201.136719 128.671875 C 202.394531 129.613281 204.070312 129.71875 205.433594 128.984375 L 223.972656 119.253906 C 224.285156 119.148438 224.601562 119.148438 224.808594 119.253906 L 243.347656 128.984375 C 243.976562 129.300781 244.605469 129.402344 245.234375 129.402344 C 246.175781 129.402344 247.015625 129.089844 247.644531 128.566406 Z M 222.609375 116.429688 L 204.070312 126.160156 C 203.652344 126.371094 203.230469 126.160156 203.128906 126.054688 C 203.023438 125.949219 202.707031 125.636719 202.8125 125.21875 L 206.375 104.605469 C 206.585938 103.246094 206.164062 101.992188 205.222656 101.050781 L 190.242188 86.503906 C 189.929688 86.191406 189.929688 85.773438 190.035156 85.5625 C 190.140625 85.355469 190.242188 85.039062 190.769531 84.9375 L 211.507812 81.902344 C 212.867188 81.691406 213.917969 80.855469 214.542969 79.703125 L 223.761719 60.976562 C 223.972656 60.558594 224.390625 60.453125 224.601562 60.453125 C 224.808594 60.453125 225.230469 60.453125 225.4375 60.976562 L 234.65625 79.703125 C 235.285156 80.855469 236.4375 81.691406 237.691406 81.902344 L 258.433594 84.9375 C 258.957031 85.039062 259.0625 85.355469 259.164062 85.5625 C 259.164062 85.773438 259.269531 86.085938 258.957031 86.503906 L 243.976562 101.050781 C 243.035156 101.992188 242.617188 103.351562 242.824219 104.605469 L 246.386719 125.21875 C 246.492188 125.742188 246.175781 125.949219 246.074219 126.054688 C 245.96875 126.160156 245.546875 126.371094 245.128906 126.160156 L 226.589844 116.429688 C 225.960938 116.117188 225.332031 116.011719 224.703125 116.011719 C 224.078125 116.011719 223.238281 116.117188 222.609375 116.429688 Z M 288.808594 128.878906 L 307.347656 119.148438 C 307.660156 119.046875 307.976562 119.046875 308.1875 119.148438 L 326.726562 128.878906 C 328.085938 129.613281 329.761719 129.507812 331.019531 128.566406 C 332.277344 127.625 332.90625 126.160156 332.589844 124.589844 L 329.03125 103.980469 C 329.03125 103.664062 329.03125 103.351562 329.238281 103.140625 L 344.21875 88.703125 C 345.371094 87.65625 345.683594 85.980469 345.265625 84.515625 C 344.742188 83.050781 343.484375 82.007812 342.019531 81.796875 L 321.277344 78.761719 C 320.964844 78.761719 320.753906 78.554688 320.546875 78.238281 L 311.328125 59.511719 C 310.59375 58.152344 309.234375 57.207031 307.660156 57.207031 C 306.089844 57.207031 304.730469 58.046875 303.996094 59.511719 L 294.777344 78.238281 C 294.671875 78.554688 294.359375 78.65625 294.046875 78.761719 L 273.304688 81.796875 C 271.734375 82.007812 270.476562 83.050781 270.058594 84.515625 C 269.640625 85.980469 269.953125 87.550781 271.105469 88.703125 L 286.085938 103.246094 C 286.292969 103.457031 286.398438 103.769531 286.292969 104.082031 L 282.734375 124.695312 C 282.417969 126.265625 283.046875 127.730469 284.304688 128.671875 C 285.039062 129.195312 285.875 129.402344 286.714844 129.402344 C 287.550781 129.402344 288.179688 129.195312 288.808594 128.878906 Z M 305.777344 116.429688 L 287.238281 126.160156 C 286.816406 126.371094 286.398438 126.160156 286.292969 126.054688 C 286.1875 125.949219 285.875 125.636719 285.980469 125.21875 L 289.542969 104.605469 C 289.75 103.246094 289.332031 101.992188 288.390625 101.050781 L 273.410156 86.503906 C 273.097656 86.191406 273.097656 85.773438 273.203125 85.5625 C 273.304688 85.355469 273.410156 85.039062 273.933594 84.9375 L 294.671875 81.902344 C 296.035156 81.691406 297.082031 80.855469 297.710938 79.703125 L 306.929688 60.976562 C 307.136719 60.558594 307.558594 60.453125 307.765625 60.453125 C 307.976562 60.453125 308.394531 60.453125 308.605469 60.976562 L 317.820312 79.703125 C 318.449219 80.855469 319.601562 81.691406 320.859375 81.902344 L 341.597656 84.9375 C 342.121094 85.039062 342.226562 85.355469 342.332031 85.5625 C 342.332031 85.773438 342.4375 86.085938 342.121094 86.503906 L 327.144531 101.050781 C 326.203125 101.992188 325.78125 103.351562 325.992188 104.605469 L 329.554688 125.21875 C 329.65625 125.742188 329.34375 125.949219 329.238281 126.054688 C 329.132812 126.160156 328.714844 126.371094 328.296875 126.160156 L 309.757812 116.429688 C 309.128906 116.117188 308.5 116.011719 307.871094 116.011719 C 307.242188 116.011719 306.40625 116.117188 305.777344 116.429688 Z M 371.972656 128.878906 L 390.515625 119.148438 C 390.828125 119.046875 391.144531 119.046875 391.351562 119.148438 L 409.890625 128.878906 C 411.253906 129.613281 412.929688 129.507812 414.1875 128.566406 C 415.441406 127.625 416.070312 126.160156 415.757812 124.589844 L 412.195312 103.980469 C 412.195312 103.664062 412.195312 103.351562 412.40625 103.140625 L 427.382812 88.703125 C 428.535156 87.65625 428.851562 85.980469 428.429688 84.515625 C 427.90625 83.050781 426.652344 82.007812 425.183594 81.796875 L 404.445312 78.761719 C 404.132812 78.761719 403.921875 78.554688 403.710938 78.238281 L 394.496094 59.511719 C 393.761719 58.152344 392.398438 57.207031 390.828125 57.207031 C 389.257812 57.207031 387.894531 58.046875 387.164062 59.511719 L 378.050781 78.34375 C 377.945312 78.65625 377.628906 78.761719 377.316406 78.867188 L 356.578125 81.902344 C 355.007812 82.109375 353.75 83.15625 353.332031 84.621094 C 352.910156 86.085938 353.226562 87.65625 354.378906 88.808594 L 369.355469 103.351562 C 369.566406 103.558594 369.671875 103.875 369.566406 104.1875 L 366.003906 124.800781 C 365.691406 126.371094 366.320312 127.835938 367.574219 128.777344 C 368.308594 129.300781 369.148438 129.507812 369.984375 129.507812 C 370.71875 129.402344 371.347656 129.195312 371.972656 128.878906 Z M 389.046875 116.429688 L 370.507812 126.160156 C 370.089844 126.371094 369.671875 126.160156 369.566406 126.054688 C 369.460938 125.949219 369.148438 125.636719 369.25 125.21875 L 372.8125 104.605469 C 373.023438 103.246094 372.601562 101.992188 371.660156 101.050781 L 356.683594 86.503906 C 356.367188 86.191406 356.367188 85.773438 356.472656 85.5625 C 356.472656 85.355469 356.683594 85.039062 357.207031 84.9375 L 377.945312 81.902344 C 379.308594 81.691406 380.355469 80.855469 380.984375 79.703125 L 390.199219 60.976562 C 390.410156 60.558594 390.828125 60.453125 391.039062 60.453125 C 391.246094 60.453125 391.667969 60.453125 391.875 60.976562 L 401.09375 79.703125 C 401.722656 80.855469 402.875 81.691406 404.132812 81.902344 L 424.871094 84.9375 C 425.394531 85.039062 425.5 85.355469 425.601562 85.5625 C 425.601562 85.773438 425.707031 86.085938 425.394531 86.503906 L 410.414062 101.050781 C 409.472656 101.992188 409.054688 103.351562 409.261719 104.605469 L 412.824219 125.21875 C 412.929688 125.742188 412.613281 125.949219 412.511719 126.054688 C 412.40625 126.160156 411.988281 126.371094 411.566406 126.160156 L 393.027344 116.429688 C 392.398438 116.117188 391.769531 116.011719 391.144531 116.011719 C 390.515625 116.011719 389.570312 116.117188 389.046875 116.429688 Z M 389.046875 116.429688 " fill-opacity="1" fill-rule="nonzero"/></g></svg>