<svg xmlns="http://www.w3.org/2000/svg" xmlns:xlink="http://www.w3.org/1999/xlink" width="600" zoomAndPan="magnify" viewBox="0 0 450 187.499995" height="250" preserveAspectRatio="xMidYMid meet" version="1.0"><defs><clipPath id="f232371821"><path d="M 23.078125 57.523438 L 430.738281 57.523438 L 430.738281 130 L 23.078125 130 Z M 23.078125 57.523438 " clip-rule="nonzero"/></clipPath></defs><g clip-path="url(#f232371821)"><path fill="#421210" d="M 62.144531 60.632812 L 71.363281 79.359375 C 71.679688 80.09375 72.410156 80.617188 73.25 80.722656 L 93.988281 83.753906 C 95.976562 84.070312 96.816406 86.582031 95.351562 87.941406 L 80.371094 102.484375 C 79.742188 103.007812 79.535156 103.84375 79.636719 104.679688 L 83.199219 125.292969 C 83.515625 127.28125 81.417969 128.851562 79.636719 127.910156 L 61.097656 118.179688 C 60.367188 117.761719 59.527344 117.761719 58.792969 118.179688 L 40.253906 127.910156 C 38.472656 128.851562 36.378906 127.28125 36.695312 125.292969 L 40.253906 104.679688 C 40.359375 103.84375 40.148438 103.113281 39.523438 102.484375 L 24.542969 87.941406 C 23.078125 86.476562 23.914062 84.070312 25.90625 83.753906 L 46.644531 80.722656 C 47.480469 80.617188 48.109375 80.09375 48.53125 79.359375 L 57.746094 60.632812 C 58.691406 58.851562 61.308594 58.851562 62.144531 60.632812 Z M 140.914062 60.632812 L 131.695312 79.359375 C 131.382812 80.09375 130.648438 80.617188 129.8125 80.722656 L 109.070312 83.753906 C 107.082031 84.070312 106.242188 86.582031 107.710938 87.941406 L 122.6875 102.484375 C 123.316406 103.007812 123.527344 103.84375 123.421875 104.679688 L 119.859375 125.292969 C 119.546875 127.28125 121.640625 128.851562 123.421875 127.910156 L 141.960938 118.179688 C 142.695312 117.761719 143.53125 117.761719 144.265625 118.179688 L 162.804688 127.910156 C 164.585938 128.851562 166.785156 127.28125 166.367188 125.292969 L 162.804688 104.679688 C 162.699219 103.84375 162.910156 103.113281 163.539062 102.484375 L 178.515625 87.941406 C 179.984375 86.476562 179.144531 84.070312 177.15625 83.753906 L 156.519531 80.722656 C 155.683594 80.617188 155.054688 80.09375 154.636719 79.359375 L 145.417969 60.632812 C 144.476562 58.851562 141.855469 58.851562 140.914062 60.632812 Z M 224.183594 60.632812 L 214.96875 79.359375 C 214.652344 80.09375 213.917969 80.617188 213.082031 80.722656 L 192.34375 83.753906 C 190.351562 84.070312 189.515625 86.582031 190.980469 87.941406 L 205.960938 102.484375 C 206.585938 103.007812 206.796875 103.84375 206.691406 104.679688 L 203.132812 125.292969 C 202.816406 127.28125 204.910156 128.851562 206.691406 127.910156 L 225.230469 118.179688 C 225.964844 117.761719 226.804688 117.761719 227.535156 118.179688 L 246.078125 127.910156 C 247.855469 128.851562 250.054688 127.28125 249.636719 125.292969 L 246.078125 104.679688 C 245.972656 103.84375 246.179688 103.113281 246.808594 102.484375 L 261.789062 87.941406 C 263.253906 86.476562 262.417969 84.070312 260.425781 83.753906 L 239.6875 80.722656 C 238.847656 80.617188 238.21875 80.09375 237.800781 79.359375 L 228.585938 60.632812 C 227.640625 58.851562 225.023438 58.851562 224.183594 60.632812 Z M 290.695312 129.269531 L 309.238281 119.539062 C 309.550781 119.433594 309.867188 119.433594 310.074219 119.539062 L 328.613281 129.269531 C 329.976562 130.003906 331.652344 129.898438 332.910156 128.957031 C 334.164062 128.015625 334.792969 126.550781 334.480469 124.980469 L 330.917969 104.367188 C 330.917969 104.054688 330.917969 103.738281 331.128906 103.53125 L 346.105469 89.089844 C 347.257812 88.046875 347.574219 86.371094 347.152344 84.90625 C 346.628906 83.441406 345.375 82.394531 343.90625 82.1875 L 323.167969 79.152344 C 322.851562 79.152344 322.644531 78.941406 322.433594 78.628906 L 313.21875 59.898438 C 312.484375 58.539062 311.121094 57.597656 309.550781 57.597656 C 307.980469 57.597656 306.617188 58.433594 305.886719 59.898438 L 296.667969 78.628906 C 296.5625 78.941406 296.25 79.046875 295.933594 79.152344 L 275.195312 82.1875 C 273.625 82.394531 272.367188 83.441406 271.949219 84.90625 C 271.527344 86.371094 271.84375 87.941406 272.996094 89.089844 L 287.972656 103.636719 C 288.183594 103.84375 288.289062 104.160156 288.183594 104.472656 L 284.621094 125.085938 C 284.308594 126.652344 284.9375 128.117188 286.191406 129.058594 C 286.925781 129.582031 287.765625 129.792969 288.601562 129.792969 C 289.441406 129.792969 290.070312 129.582031 290.695312 129.269531 Z M 307.664062 116.820312 L 289.125 126.550781 C 288.707031 126.757812 288.289062 126.550781 288.183594 126.445312 C 288.078125 126.339844 287.765625 126.027344 287.867188 125.609375 L 291.429688 104.996094 C 291.640625 103.636719 291.222656 102.378906 290.277344 101.4375 L 275.300781 86.894531 C 274.984375 86.582031 274.984375 86.160156 275.089844 85.953125 C 275.195312 85.742188 275.300781 85.429688 275.824219 85.324219 L 296.5625 82.289062 C 297.925781 82.082031 298.972656 81.246094 299.601562 80.09375 L 308.816406 61.363281 C 309.027344 60.945312 309.445312 60.839844 309.65625 60.839844 C 309.863281 60.839844 310.285156 60.839844 310.492188 61.363281 L 319.710938 80.09375 C 320.339844 81.246094 321.492188 82.082031 322.75 82.289062 L 343.488281 85.324219 C 344.011719 85.429688 344.117188 85.742188 344.222656 85.953125 C 344.222656 86.160156 344.324219 86.476562 344.011719 86.894531 L 329.035156 101.4375 C 328.089844 102.378906 327.671875 103.738281 327.882812 104.996094 L 331.441406 125.609375 C 331.546875 126.128906 331.234375 126.339844 331.128906 126.445312 C 331.023438 126.550781 330.605469 126.757812 330.183594 126.550781 L 311.644531 116.820312 C 311.015625 116.503906 310.390625 116.398438 309.761719 116.398438 C 309.132812 116.398438 308.292969 116.503906 307.664062 116.820312 Z M 373.863281 129.269531 L 392.402344 119.539062 C 392.71875 119.433594 393.03125 119.433594 393.242188 119.539062 L 411.78125 129.269531 C 413.144531 130.003906 414.820312 129.898438 416.074219 128.957031 C 417.332031 128.015625 417.960938 126.550781 417.648438 124.980469 L 414.085938 104.367188 C 414.085938 104.054688 414.085938 103.738281 414.292969 103.53125 L 429.273438 89.089844 C 430.425781 88.046875 430.738281 86.371094 430.320312 84.90625 C 429.796875 83.441406 428.539062 82.394531 427.074219 82.1875 L 406.335938 79.152344 C 406.019531 79.152344 405.8125 78.941406 405.601562 78.628906 L 396.382812 59.898438 C 395.652344 58.539062 394.289062 57.597656 392.71875 57.597656 C 391.144531 57.597656 389.785156 58.433594 389.050781 59.898438 L 379.9375 78.734375 C 379.835938 79.046875 379.519531 79.152344 379.207031 79.257812 L 358.464844 82.289062 C 356.894531 82.5 355.636719 83.546875 355.21875 85.011719 C 354.800781 86.476562 355.113281 88.046875 356.265625 89.195312 L 371.246094 103.738281 C 371.453125 103.949219 371.558594 104.261719 371.453125 104.578125 L 367.894531 125.1875 C 367.578125 126.757812 368.207031 128.222656 369.464844 129.164062 C 370.199219 129.6875 371.035156 129.898438 371.875 129.898438 C 372.605469 129.792969 373.234375 129.582031 373.863281 129.269531 Z M 390.9375 116.820312 L 372.398438 126.550781 C 371.976562 126.757812 371.558594 126.550781 371.453125 126.445312 C 371.351562 126.339844 371.035156 126.027344 371.140625 125.609375 L 374.703125 104.996094 C 374.910156 103.636719 374.492188 102.378906 373.550781 101.4375 L 358.570312 86.894531 C 358.257812 86.582031 358.257812 86.160156 358.363281 85.953125 C 358.363281 85.742188 358.570312 85.429688 359.09375 85.324219 L 379.835938 82.289062 C 381.195312 82.082031 382.242188 81.246094 382.871094 80.09375 L 392.089844 61.363281 C 392.296875 60.945312 392.71875 60.839844 392.925781 60.839844 C 393.136719 60.839844 393.554688 60.839844 393.765625 61.363281 L 402.980469 80.09375 C 403.609375 81.246094 404.761719 82.082031 406.019531 82.289062 L 426.757812 85.324219 C 427.28125 85.429688 427.386719 85.742188 427.492188 85.953125 C 427.492188 86.160156 427.597656 86.476562 427.28125 86.894531 L 412.304688 101.4375 C 411.363281 102.378906 410.941406 103.738281 411.152344 104.996094 L 414.714844 125.609375 C 414.820312 126.128906 414.503906 126.339844 414.398438 126.445312 C 414.292969 126.550781 413.875 126.757812 413.457031 126.550781 L 394.917969 116.820312 C 394.289062 116.503906 393.660156 116.398438 393.03125 116.398438 C 392.402344 116.398438 391.460938 116.503906 390.9375 116.820312 Z M 390.9375 116.820312 " fill-opacity="1" fill-rule="nonzero"/></g></svg>