<svg xmlns="http://www.w3.org/2000/svg" xmlns:xlink="http://www.w3.org/1999/xlink" width="600" zoomAndPan="magnify" viewBox="0 0 450 187.499995" height="250" preserveAspectRatio="xMidYMid meet" version="1.0"><defs><clipPath id="1f0a765158"><path d="M 19 56.726562 L 431.519531 56.726562 L 431.519531 130 L 19 130 Z M 19 56.726562 " clip-rule="nonzero"/></clipPath></defs><g clip-path="url(#1f0a765158)"><path fill="#421210" d="M 58.195312 59.867188 L 67.53125 78.792969 C 67.847656 79.53125 68.589844 80.058594 69.4375 80.167969 L 90.445312 83.230469 C 92.460938 83.550781 93.308594 86.085938 91.824219 87.460938 L 76.652344 102.15625 C 76.015625 102.683594 75.804688 103.527344 75.910156 104.375 L 79.515625 125.199219 C 79.835938 127.207031 77.714844 128.792969 75.910156 127.84375 L 57.132812 118.011719 C 56.390625 117.589844 55.542969 117.589844 54.796875 118.011719 L 36.019531 127.84375 C 34.21875 128.792969 32.09375 127.207031 32.414062 125.199219 L 36.019531 104.375 C 36.128906 103.527344 35.914062 102.789062 35.277344 102.15625 L 20.109375 87.460938 C 18.621094 85.980469 19.472656 83.550781 21.488281 83.230469 L 42.492188 80.167969 C 43.339844 80.058594 43.976562 79.53125 44.402344 78.792969 L 53.738281 59.871094 C 54.691406 58.070312 57.34375 58.070312 58.195312 59.867188 Z M 137.972656 59.867188 L 128.636719 78.792969 C 128.320312 79.53125 127.574219 80.058594 126.726562 80.167969 L 105.722656 83.230469 C 103.707031 83.550781 102.855469 86.085938 104.34375 87.460938 L 119.511719 102.15625 C 120.148438 102.683594 120.363281 103.527344 120.253906 104.375 L 116.648438 125.199219 C 116.332031 127.207031 118.453125 128.792969 120.253906 127.84375 L 139.035156 118.011719 C 139.777344 117.589844 140.625 117.589844 141.367188 118.011719 L 160.144531 127.84375 C 161.949219 128.792969 164.175781 127.207031 163.753906 125.199219 L 160.144531 104.375 C 160.039062 103.527344 160.25 102.789062 160.886719 102.15625 L 176.058594 87.460938 C 177.542969 85.980469 176.695312 83.550781 174.679688 83.230469 L 153.78125 80.167969 C 152.929688 80.058594 152.292969 79.53125 151.871094 78.792969 L 142.535156 59.871094 C 141.578125 58.070312 138.925781 58.070312 137.972656 59.867188 Z M 222.3125 59.867188 L 212.976562 78.792969 C 212.660156 79.53125 211.917969 80.058594 211.066406 80.167969 L 190.0625 83.230469 C 188.046875 83.550781 187.199219 86.085938 188.683594 87.460938 L 203.855469 102.15625 C 204.492188 102.683594 204.703125 103.527344 204.597656 104.375 L 200.988281 125.199219 C 200.671875 127.207031 202.792969 128.792969 204.597656 127.84375 L 223.375 118.011719 C 224.117188 117.589844 224.964844 117.589844 225.707031 118.011719 L 244.484375 127.84375 C 246.289062 128.792969 248.515625 127.207031 248.09375 125.199219 L 244.484375 104.375 C 244.378906 103.527344 244.59375 102.789062 245.230469 102.15625 L 260.398438 87.460938 C 261.882812 85.980469 261.035156 83.550781 259.019531 83.230469 L 238.015625 80.167969 C 237.164062 80.058594 236.53125 79.53125 236.105469 78.792969 L 226.769531 59.871094 C 225.8125 58.070312 223.164062 58.070312 222.3125 59.867188 Z M 306.546875 59.867188 L 297.210938 78.792969 C 296.894531 79.53125 296.152344 80.058594 295.304688 80.167969 L 274.296875 83.230469 C 272.28125 83.550781 271.433594 86.085938 272.917969 87.460938 L 288.089844 102.15625 C 288.726562 102.683594 288.9375 103.527344 288.832031 104.375 L 285.222656 125.199219 C 284.90625 127.207031 287.027344 128.792969 288.832031 127.84375 L 307.609375 118.011719 C 308.351562 117.589844 309.199219 117.589844 309.941406 118.011719 L 328.722656 127.84375 C 330.523438 128.792969 332.753906 127.207031 332.328125 125.199219 L 328.722656 104.375 C 328.613281 103.527344 328.828125 102.789062 329.464844 102.15625 L 344.632812 87.460938 C 346.121094 85.980469 345.269531 83.550781 343.253906 83.230469 L 322.355469 80.167969 C 321.507812 80.058594 320.871094 79.53125 320.445312 78.792969 L 311.109375 59.871094 C 310.15625 58.070312 307.503906 58.070312 306.546875 59.867188 Z M 373.914062 129.21875 L 392.691406 119.386719 C 393.011719 119.28125 393.328125 119.28125 393.542969 119.386719 L 412.320312 129.21875 C 413.699219 129.957031 415.394531 129.851562 416.667969 128.898438 C 417.941406 127.949219 418.578125 126.46875 418.261719 124.882812 L 414.652344 104.058594 C 414.652344 103.738281 414.652344 103.421875 414.867188 103.210938 L 430.035156 88.625 C 431.203125 87.566406 431.519531 85.875 431.097656 84.394531 C 430.566406 82.914062 429.292969 81.859375 427.808594 81.644531 L 406.800781 78.582031 C 406.484375 78.582031 406.273438 78.367188 406.058594 78.050781 L 396.722656 59.128906 C 395.980469 57.753906 394.601562 56.804688 393.011719 56.804688 C 391.417969 56.804688 390.039062 57.648438 389.296875 59.128906 L 380.066406 78.15625 C 379.960938 78.476562 379.644531 78.582031 379.324219 78.6875 L 358.320312 81.75 C 356.726562 81.964844 355.457031 83.019531 355.03125 84.5 C 354.605469 85.980469 354.925781 87.566406 356.09375 88.730469 L 371.261719 103.421875 C 371.476562 103.632812 371.582031 103.953125 371.476562 104.269531 L 367.867188 125.09375 C 367.550781 126.679688 368.1875 128.160156 369.460938 129.109375 C 370.203125 129.640625 371.050781 129.851562 371.898438 129.851562 C 372.640625 129.746094 373.277344 129.535156 373.914062 129.21875 Z M 391.207031 116.636719 L 372.429688 126.46875 C 372.003906 126.679688 371.582031 126.46875 371.476562 126.363281 C 371.367188 126.257812 371.050781 125.941406 371.15625 125.515625 L 374.761719 104.691406 C 374.976562 103.316406 374.550781 102.046875 373.597656 101.097656 L 358.425781 86.402344 C 358.109375 86.085938 358.109375 85.664062 358.214844 85.453125 C 358.214844 85.242188 358.425781 84.921875 358.957031 84.816406 L 379.960938 81.75 C 381.339844 81.539062 382.402344 80.695312 383.039062 79.53125 L 392.375 60.609375 C 392.585938 60.1875 393.011719 60.082031 393.222656 60.082031 C 393.433594 60.082031 393.859375 60.082031 394.070312 60.609375 L 403.40625 79.53125 C 404.042969 80.695312 405.210938 81.539062 406.484375 81.75 L 427.488281 84.816406 C 428.019531 84.921875 428.125 85.242188 428.234375 85.453125 C 428.234375 85.664062 428.339844 85.980469 428.019531 86.402344 L 412.847656 101.097656 C 411.894531 102.046875 411.46875 103.421875 411.683594 104.691406 L 415.289062 125.515625 C 415.394531 126.046875 415.078125 126.257812 414.972656 126.363281 C 414.863281 126.46875 414.441406 126.679688 414.015625 126.46875 L 395.238281 116.636719 C 394.601562 116.320312 393.964844 116.214844 393.328125 116.214844 C 392.691406 116.214844 391.738281 116.320312 391.207031 116.636719 Z M 391.207031 116.636719 " fill-opacity="1" fill-rule="nonzero"/></g></svg>