<svg xmlns="http://www.w3.org/2000/svg" xmlns:xlink="http://www.w3.org/1999/xlink" width="600" zoomAndPan="magnify" viewBox="0 0 450 187.499995" height="250" preserveAspectRatio="xMidYMid meet" version="1.0"><defs><clipPath id="8e485e4bbd"><path d="M 15 57.183594 L 435 57.183594 L 435 129 L 15 129 Z M 15 57.183594 " clip-rule="nonzero"/></clipPath></defs><g clip-path="url(#8e485e4bbd)"><path fill="#421210" d="M 55.144531 59.105469 L 64.671875 78.476562 C 64.996094 79.234375 65.753906 79.773438 66.621094 79.882812 L 88.0625 83.019531 C 90.121094 83.34375 90.988281 85.941406 89.472656 87.347656 L 73.984375 102.390625 C 73.335938 102.933594 73.121094 103.796875 73.226562 104.664062 L 76.910156 125.980469 C 77.234375 128.039062 75.070312 129.660156 73.226562 128.6875 L 54.058594 118.625 C 53.300781 118.191406 52.4375 118.191406 51.679688 118.625 L 32.511719 128.6875 C 30.671875 129.660156 28.503906 128.039062 28.828125 125.980469 L 32.511719 104.664062 C 32.621094 103.796875 32.402344 103.039062 31.753906 102.390625 L 16.265625 87.347656 C 14.75 85.835938 15.617188 83.34375 17.675781 83.019531 L 39.117188 79.882812 C 39.984375 79.773438 40.632812 79.234375 41.066406 78.476562 L 50.59375 59.105469 C 51.570312 57.265625 54.277344 57.265625 55.144531 59.105469 Z M 136.578125 59.105469 L 127.046875 78.476562 C 126.722656 79.234375 125.964844 79.773438 125.097656 79.882812 L 103.65625 83.019531 C 101.597656 83.34375 100.734375 85.941406 102.25 87.347656 L 117.734375 102.390625 C 118.382812 102.933594 118.601562 103.796875 118.492188 104.664062 L 114.8125 125.980469 C 114.484375 128.039062 116.652344 129.660156 118.492188 128.6875 L 137.660156 118.625 C 138.417969 118.191406 139.285156 118.191406 140.042969 118.625 L 159.210938 128.6875 C 161.050781 129.660156 163.324219 128.039062 162.890625 125.980469 L 159.210938 104.664062 C 159.101562 103.796875 159.316406 103.039062 159.96875 102.390625 L 175.453125 87.347656 C 176.96875 85.835938 176.101562 83.34375 174.046875 83.019531 L 152.605469 79.882812 C 151.738281 79.773438 151.085938 79.234375 150.65625 78.476562 L 141.125 59.105469 C 140.257812 57.265625 137.550781 57.265625 136.578125 59.105469 Z M 222.667969 59.105469 L 213.136719 78.476562 C 212.8125 79.234375 212.054688 79.773438 211.1875 79.882812 L 189.746094 83.019531 C 187.6875 83.34375 186.824219 85.941406 188.339844 87.347656 L 203.824219 102.390625 C 204.472656 102.933594 204.691406 103.796875 204.582031 104.664062 L 200.902344 125.980469 C 200.574219 128.039062 202.742188 129.660156 204.582031 128.6875 L 223.75 118.625 C 224.507812 118.191406 225.375 118.191406 226.132812 118.625 L 245.300781 128.6875 C 247.140625 129.660156 249.414062 128.039062 248.980469 125.980469 L 245.300781 104.664062 C 245.191406 103.796875 245.40625 103.039062 246.058594 102.390625 L 261.542969 87.347656 C 263.058594 85.835938 262.191406 83.34375 260.136719 83.019531 L 238.695312 79.882812 C 237.828125 79.773438 237.175781 79.234375 236.746094 78.476562 L 227.214844 59.105469 C 226.242188 57.265625 223.53125 57.265625 222.667969 59.105469 Z M 308.648438 59.105469 L 299.117188 78.476562 C 298.792969 79.234375 298.035156 79.773438 297.171875 79.882812 L 275.730469 83.019531 C 273.671875 83.34375 272.804688 85.941406 274.320312 87.347656 L 289.804688 102.390625 C 290.457031 102.933594 290.671875 103.796875 290.5625 104.664062 L 286.882812 125.980469 C 286.558594 128.039062 288.722656 129.660156 290.5625 128.6875 L 309.730469 118.625 C 310.488281 118.191406 311.355469 118.191406 312.113281 118.625 L 331.28125 128.6875 C 333.121094 129.660156 335.394531 128.039062 334.964844 125.980469 L 331.28125 104.664062 C 331.171875 103.796875 331.390625 103.039062 332.039062 102.390625 L 347.523438 87.347656 C 349.039062 85.835938 348.175781 83.34375 346.117188 83.019531 L 324.675781 79.882812 C 323.808594 79.773438 323.160156 79.234375 322.726562 78.476562 L 313.195312 59.105469 C 312.332031 57.265625 309.625 57.265625 308.648438 59.105469 Z M 394.738281 59.105469 L 385.210938 78.476562 C 384.882812 79.234375 384.125 79.773438 383.261719 79.882812 L 361.820312 83.019531 C 359.761719 83.34375 358.894531 85.941406 360.410156 87.347656 L 375.894531 102.390625 C 376.546875 102.933594 376.761719 103.796875 376.652344 104.664062 L 372.972656 125.980469 C 372.648438 128.039062 374.8125 129.660156 376.652344 128.6875 L 395.820312 118.625 C 396.578125 118.191406 397.445312 118.191406 398.203125 118.625 L 417.371094 128.6875 C 419.210938 129.660156 421.484375 128.039062 421.054688 125.980469 L 417.371094 104.664062 C 417.261719 103.796875 417.480469 103.039062 418.128906 102.390625 L 433.613281 87.347656 C 435.128906 85.835938 434.265625 83.34375 432.207031 83.019531 L 410.765625 79.882812 C 409.898438 79.773438 409.25 79.234375 408.816406 78.476562 L 399.285156 59.105469 C 398.3125 57.265625 395.605469 57.265625 394.738281 59.105469 Z M 394.738281 59.105469 " fill-opacity="1" fill-rule="nonzero"/></g></svg>