<svg xmlns="http://www.w3.org/2000/svg" xmlns:xlink="http://www.w3.org/1999/xlink" width="46" zoomAndPan="magnify" viewBox="0 0 34.5 34.5" height="46" preserveAspectRatio="xMidYMid meet" version="1.0"><defs><clipPath id="adc0338539"><path d="M 2.226562 4 L 31 4 L 31 30.921875 L 2.226562 30.921875 Z M 2.226562 4 " clip-rule="nonzero"/></clipPath></defs><g clip-path="url(#adc0338539)"><path fill="#75483e" d="M 29.621094 10.722656 C 29.902344 9.09375 29.980469 7.046875 28.542969 5.953125 C 25.484375 4.097656 20.066406 8.09375 18.359375 10.6875 C 16.894531 7.535156 14.125 4.488281 10.503906 4.253906 C 6.527344 3.925781 2.429688 6.421875 2.226562 10.75 C 2.265625 17.675781 7.730469 26.820312 13.472656 30.472656 C 13.789062 30.671875 14.160156 30.695312 14.480469 30.585938 C 14.765625 30.878906 15.226562 30.914062 15.570312 30.683594 C 17.347656 29.472656 19.179688 28.328125 20.824219 26.933594 C 25.199219 23.269531 32.226562 17.070312 29.621094 10.722656 Z M 13.417969 7.421875 C 12.867188 7.136719 12.304688 6.882812 11.726562 6.660156 C 11.128906 6.445312 10.523438 6.230469 9.898438 6.109375 C 11.191406 6.085938 12.425781 6.605469 13.417969 7.421875 Z M 4.367188 12.59375 C 4.335938 12.898438 4.3125 13.207031 4.300781 13.511719 C 3.648438 11.210938 4.054688 8.3125 6.246094 7 C 4.699219 8.375 4.261719 10.5625 4.367188 12.59375 Z M 6.800781 15.167969 C 5.636719 12.433594 6.699219 7.414062 10.503906 9.121094 C 14.417969 10.085938 15.925781 16.132812 17.734375 14.679688 C 18.644531 17.113281 21.09375 15.792969 19.730469 13.292969 C 21.539062 11.800781 23.558594 10.410156 25.835938 9.847656 C 27.066406 10.546875 27.421875 12.347656 25.808594 15.378906 C 23.195312 20.03125 18.75 23.222656 14.46875 26.179688 C 11.710938 22.683594 8.164062 19.542969 6.800781 15.167969 Z M 22.363281 23.371094 C 21.570312 24.078125 20.773438 24.777344 19.953125 25.445312 C 22.820312 22.960938 25.488281 20.238281 27.570312 17.058594 C 26.339844 19.511719 24.335938 21.515625 22.363281 23.371094 Z M 27.089844 7.238281 C 26.625 7.078125 26.136719 7 25.65625 7 C 26.175781 6.851562 26.734375 6.734375 27.273438 6.859375 C 27.277344 6.859375 27.355469 6.882812 27.433594 6.910156 C 27.492188 6.933594 27.546875 6.960938 27.597656 6.984375 C 27.921875 7.136719 28.15625 7.5625 28.25 7.917969 C 27.910156 7.617188 27.511719 7.386719 27.089844 7.238281 Z M 27.089844 7.238281 " fill-opacity="1" fill-rule="nonzero"/></g></svg>