<?xml version="1.0" standalone="no"?>
<!DOCTYPE svg PUBLIC "-//W3C//DTD SVG 20010904//EN"
 "http://www.w3.org/TR/2001/REC-SVG-20010904/DTD/svg10.dtd">
<svg version="1.0" xmlns="http://www.w3.org/2000/svg"
 width="48.000000pt" height="48.000000pt" viewBox="0 0 48.000000 48.000000"
 preserveAspectRatio="xMidYMid meet">

<g transform="translate(0.000000,48.000000) scale(0.100000,-0.100000)"
fill="#ffffff" stroke="none">
<path d="M90 393 c1 -27 -2 -65 -6 -86 -5 -31 -2 -45 14 -67 23 -31 19 -44 -9
-29 -17 9 -19 6 -19 -26 0 -25 7 -43 23 -58 13 -12 26 -29 30 -39 3 -9 29 -23
60 -32 48 -14 62 -14 109 -2 36 9 57 20 64 35 6 12 21 29 33 37 15 11 21 26
21 51 0 30 -3 35 -20 30 -24 -6 -25 5 -3 39 17 27 20 81 5 96 -5 5 -7 29 -4
54 2 24 2 44 -2 44 -12 0 -125 -60 -131 -69 -3 -6 -37 7 -78 29 -40 22 -76 40
-80 40 -4 0 -7 -21 -7 -47z m119 -59 c27 -35 26 -49 -5 -80 -59 -60 -140 21
-82 83 28 30 62 29 87 -3z m151 6 c11 -11 20 -31 20 -45 0 -30 -32 -65 -59
-65 -30 0 -63 33 -63 63 0 59 62 87 102 47z m-105 -80 c3 -5 2 -17 -3 -27 -9
-15 -11 -14 -20 4 -15 27 7 49 23 23z m-84 -106 l69 -36 69 36 c38 20 72 36
75 36 3 0 6 -11 6 -24 0 -20 -13 -31 -75 -63 l-75 -38 -75 38 c-62 32 -75 43
-75 63 0 13 3 24 6 24 3 0 37 -16 75 -36z"/>
<path d="M145 280 c-4 -7 -3 -16 3 -22 14 -14 45 -2 40 15 -6 16 -34 21 -43 7z"/>
<path d="M294 279 c-9 -15 12 -33 30 -26 9 4 16 13 16 22 0 17 -35 21 -46 4z"/>
</g>
</svg>
